<?xml version="1.0" encoding="iso-8859-1"?>
<svg fill="#FFFFFF"  version="1.1" id="Layer_1" xmlns="http://www.w3.org/2000/svg" xmlns:xlink="http://www.w3.org/1999/xlink" 
	 viewBox="0 0 512 512" xml:space="preserve">
<g>
	<g>
		<path d="M273.066,103.947V17.067C273.066,7.641,265.425,0,255.999,0s-17.067,7.641-17.067,17.067v86.881
			C142.902,120.285,71.711,271.731,71.711,366.136C71.711,467.61,152.685,512,255.999,512c102.915,0,184.289-44.09,184.289-145.864
			C440.288,271.473,368.956,120.26,273.066,103.947z M299.362,150.615l-161.514,93.25
			C172.285,172.719,232.22,108.114,299.362,150.615z M107.392,386.765c-4.598-29.272,1.873-63.733,10.476-91.953l209.377-120.884
			c17.025,17.806,31.328,39.623,42.588,61.317L107.392,386.765z M118.459,419.79l265.652-153.374
			c10.052,25.049,17.114,50.792,20.237,74.219l-220.72,127.431C156.485,459.609,132.434,444.945,118.459,419.79z M236.017,477.234
			l169.521-97.873C397.843,460.007,316.835,482.454,236.017,477.234z"/>
	</g>
</g>
</svg>