<svg width="128" height="188" viewBox="0 0 128 188" fill="none" xmlns="http://www.w3.org/2000/svg">
<g clip-path="url(#clip0_19_36)">
<path d="M125.5 120.751C125.5 141.962 119.061 158.122 108.896 168.957C98.7345 179.789 84.6668 185.5 69 185.5C53.3332 185.5 39.2655 179.789 29.104 168.957C18.9394 158.122 12.5 141.962 12.5 120.751C12.5 99.5069 18.9647 79.3265 29.329 64.5163C39.7077 49.6855 53.7803 40.5 69 40.5C84.2197 40.5 98.2923 49.6855 108.671 64.5163C119.035 79.3265 125.5 99.5069 125.5 120.751Z" stroke="white" stroke-width="5"/>
<path d="M85.2777 1.96938C84.7085 0.711451 83.2273 0.153126 81.9694 0.722324C80.7115 1.29152 80.1531 2.7727 80.7223 4.03063L85.2777 1.96938ZM83.75 42C86.0834 42.8974 86.0837 42.8966 86.0841 42.8957C86.0842 42.8953 86.0845 42.8944 86.0848 42.8937C86.0853 42.8924 86.0859 42.891 86.0864 42.8894C86.0876 42.8864 86.0889 42.883 86.0903 42.8793C86.0931 42.8718 86.0965 42.8629 86.1003 42.8525C86.108 42.8317 86.1177 42.8052 86.1293 42.7729C86.1524 42.7081 86.183 42.6201 86.22 42.5084C86.294 42.2849 86.3934 41.9668 86.5095 41.5509C86.7417 40.7192 87.0404 39.4973 87.3353 37.8611C87.9254 34.5882 88.5 29.662 88.5 22.89L83.5 22.89C83.5 29.378 82.9496 34.0068 82.4147 36.9739C82.1472 38.4577 81.8833 39.527 81.6936 40.2066C81.5988 40.5464 81.5224 40.7888 81.4733 40.9371C81.4488 41.0112 81.4311 41.0618 81.4213 41.0893C81.4164 41.103 81.4134 41.1109 81.4126 41.1131C81.4122 41.1142 81.4123 41.1139 81.413 41.1121C81.4133 41.1112 81.4138 41.11 81.4144 41.1084C81.4147 41.1076 81.415 41.1067 81.4154 41.1057C81.4156 41.1053 81.4159 41.1045 81.416 41.1042C81.4163 41.1034 81.4166 41.1026 83.75 42ZM88.5 22.89C88.5 16.0697 87.7283 10.9123 86.9384 7.42083C86.5436 5.67574 86.1446 4.34862 85.8361 3.43971C85.6819 2.9853 85.5504 2.63555 85.4533 2.39047C85.4048 2.26793 85.3649 2.17157 85.3352 2.10139C85.3203 2.0663 85.3079 2.03775 85.2983 2.01575C85.2935 2.00475 85.2893 1.99538 85.2859 1.98765C85.2842 1.98379 85.2826 1.98033 85.2812 1.97729C85.2806 1.97576 85.2799 1.97434 85.2793 1.97303C85.279 1.97237 85.2786 1.97145 85.2785 1.97112C85.2781 1.97024 85.2777 1.96938 83 3C80.7223 4.03063 80.722 4.02982 80.7216 4.02903C80.7215 4.0288 80.7212 4.02804 80.721 4.02758C80.7205 4.02667 80.7202 4.02586 80.7199 4.02514C80.7192 4.02372 80.7188 4.02269 80.7185 4.02206C80.7179 4.02081 80.7181 4.02116 80.7189 4.0231C80.7206 4.027 80.7251 4.0373 80.7322 4.05401C80.7464 4.08741 80.771 4.14644 80.8045 4.23109C80.8715 4.40039 80.9743 4.6722 81.1014 5.04654C81.3554 5.79513 81.7064 6.95427 82.0616 8.52417C82.7717 11.6627 83.5 16.4503 83.5 22.89L88.5 22.89Z" fill="white"/>
<path d="M49 45.5C49 45.5 57 74.5 77 84.5C97 94.5 120.256 88.5708 120.256 88.5708" stroke="white" stroke-width="5"/>
<path d="M30.5 63.5C30.5 63.5 35.5 105.884 67 120.5C98.5 135.116 124.5 111 124.5 111" stroke="white" stroke-width="5"/>
<path d="M15 97.5C15 97.5 11.5 133.78 54 153.5C96.5 173.22 124.366 138.029 124.366 138.029" stroke="white" stroke-width="5"/>
</g>
<defs>
<clipPath id="clip0_19_36">
<rect width="127.65" height="188" fill="white" transform="translate(0.350445)"/>
</clipPath>
</defs>
</svg>
