<svg width="160" height="160" viewBox="0 0 160 160" fill="none" xmlns="http://www.w3.org/2000/svg">
<g clip-path="url(#clip0_2_27)">
<path fill-rule="evenodd" clip-rule="evenodd" d="M52.8913 79.0236L79.7494 36.818L106.607 79.0236L79.7494 94.3711L52.8913 79.0236Z" fill="#1F294F"/>
<path fill-rule="evenodd" clip-rule="evenodd" d="M52.8913 86.2321L79.7494 101.58L106.607 86.2321L79.7494 122.682L52.8913 86.2321Z" fill="#1F294F"/>
<path fill-rule="evenodd" clip-rule="evenodd" d="M91.9632 19.6967C87.7921 21.6432 83.7306 23.8166 79.7972 26.2073C75.8392 23.7899 71.7433 21.6058 67.5305 19.6665C71.4631 17.0085 75.5269 14.5501 79.7066 12.3004C83.8123 14.5041 87.8979 16.9695 91.9632 19.6967Z" fill="#5F9A34"/>
<path fill-rule="evenodd" clip-rule="evenodd" d="M149.312 10.187C134.569 -4.55501 107.702 -2.79401 79.7066 12.3003C83.8123 14.504 87.8979 16.9695 91.9632 19.6966C102.801 14.6853 113.125 11.9984 121.87 11.9984C129.689 11.9984 136.25 14.1419 140.798 18.6904C150.449 28.3405 149.302 47.0173 139.802 67.5356C142.519 71.5908 144.985 75.6763 147.198 79.7922C162.293 51.7972 164.054 24.9293 149.312 10.187Z" fill="#FFC750"/>
<path fill-rule="evenodd" clip-rule="evenodd" d="M91.9632 19.6967C87.7921 21.6432 83.7306 23.8166 79.7972 26.2073C101.539 39.6567 119.845 57.9903 133.261 79.752C135.66 75.8005 137.843 71.7225 139.802 67.5357C133.447 58.1279 126.198 49.3558 118.157 41.3418C110.15 33.2926 101.377 26.0433 91.9632 19.6967Z" fill="#FFC750"/>
<path fill-rule="evenodd" clip-rule="evenodd" d="M147.198 79.7923C145.015 83.8477 142.549 87.9331 139.812 91.9985C137.854 87.7997 135.667 83.7114 133.261 79.752C135.66 75.8006 137.843 71.7226 139.802 67.5358C142.519 71.5909 144.985 75.6764 147.198 79.7923Z" fill="#FF512F"/>
<path fill-rule="evenodd" clip-rule="evenodd" d="M139.812 91.9984C137.854 87.7996 135.667 83.7113 133.261 79.7519C126.612 90.6259 118.683 100.663 109.644 109.649C100.676 118.693 90.6555 126.629 79.7972 133.287C83.7264 135.685 87.7882 137.858 91.9632 139.797C101.377 133.451 110.15 126.201 118.157 118.152C126.202 110.153 133.454 101.394 139.812 91.9984Z" fill="#FF6895"/>
<path fill-rule="evenodd" clip-rule="evenodd" d="M155.822 99.9782C153.59 92.993 150.702 86.2343 147.198 79.7922C145.015 83.8476 142.549 87.933 139.812 91.9984C149.302 112.507 150.449 131.163 140.798 140.803C131.148 150.454 112.482 149.297 91.9632 139.797C91.118 140.371 90.2727 140.924 89.4274 141.467C86.2072 143.541 82.9569 145.453 79.7066 147.193C94.6098 155.234 109.191 159.49 121.8 159.49C132.869 159.49 142.419 156.21 149.312 149.317C160.099 138.529 162.403 121.01 155.822 99.9782Z" fill="#FF6895"/>
<path fill-rule="evenodd" clip-rule="evenodd" d="M91.9632 139.797C91.1179 140.371 90.2727 140.924 89.4274 141.467C86.2072 143.541 82.9569 145.453 79.7066 147.193C75.6613 145.02 71.6026 142.565 67.5305 139.827C71.7434 137.888 75.8393 135.704 79.7972 133.286C83.7264 135.685 87.7882 137.858 91.9632 139.797Z" fill="#552990"/>
<path fill-rule="evenodd" clip-rule="evenodd" d="M55.918 144.336C39.3745 149.518 26.1519 148.26 18.6954 140.803C11.2386 133.347 9.98073 120.124 15.1633 103.581C16.4148 99.6217 17.9172 95.7464 19.6614 91.9783C16.9344 87.9229 14.479 83.8476 12.2953 79.8023C8.79469 86.2412 5.91056 92.9965 3.68139 99.9782C-2.90973 121.01 -0.59534 138.529 10.1821 149.317C16.9444 156.069 26.343 159.5 37.5934 159.5C45.0433 159.388 52.433 158.146 59.5104 155.817C66.4989 153.585 73.261 150.697 79.7066 147.193C75.6613 145.02 71.6026 142.565 67.5305 139.827C63.7603 141.577 59.8815 143.083 55.918 144.336Z" fill="#5666F6"/>
<path fill-rule="evenodd" clip-rule="evenodd" d="M67.5305 139.827C71.7434 137.888 75.8393 135.704 79.7972 133.286C68.9026 126.637 58.8479 118.701 49.8501 109.649C40.7979 100.651 32.8616 90.5961 26.2123 79.7016C23.7954 83.665 21.6082 87.764 19.6614 91.9782C26.0296 101.381 33.2918 110.146 41.3468 118.152C49.3484 126.212 58.1179 133.472 67.5305 139.827Z" fill="#5666F6"/>
<path fill-rule="evenodd" clip-rule="evenodd" d="M26.2123 79.7016C23.7954 83.665 21.6082 87.764 19.6614 91.9782C16.9343 87.9229 14.479 83.8476 12.2953 79.8023C14.499 75.6966 16.9745 71.5908 19.7017 67.5357C21.6403 71.7107 23.814 75.7725 26.2123 79.7016Z" fill="#204FA0"/>
<path fill-rule="evenodd" clip-rule="evenodd" d="M18.6954 18.6904C26.1519 11.2336 39.3745 9.97575 55.918 15.1684C59.8797 16.4216 63.7583 17.9239 67.5305 19.6665C71.4631 17.0085 75.527 14.5501 79.7066 12.3004C73.263 8.79217 66.5005 5.90452 59.5104 3.67639C38.489 -2.90454 20.9695 -0.600343 10.1821 10.1871C3.28899 17.0803 0.00848389 26.6299 0.00848389 37.6991C0.00848389 50.3079 4.26509 64.8991 12.2953 79.8023C14.499 75.6966 16.9745 71.5909 19.7017 67.5357C10.2022 47.0173 9.04496 28.3405 18.6954 18.6904Z" fill="#5FC5A6"/>
<path fill-rule="evenodd" clip-rule="evenodd" d="M67.5305 19.6664C48.71 32.4621 32.4814 48.7044 19.7017 67.5357C21.6404 71.7107 23.8141 75.7725 26.2124 79.7016C39.6645 57.9406 58.0135 39.6226 79.7973 26.2073C75.8393 23.7898 71.7434 21.6058 67.5305 19.6664Z" fill="#5FC5A6"/>
</g>
<defs>
<clipPath id="clip0_2_27">
<rect width="160" height="160" fill="white"/>
</clipPath>
</defs>
</svg>
